<svg width="512" height="512" xmlns="http://www.w3.org/2000/svg" class="svg-inline--fa fa-book-open fa-w-18">

 <g>
  <title>background</title>
  <rect fill="none" id="canvas_background" height="514" width="514" y="-1" x="-1"/>
 </g>
 <g>
  <title>Layer 1</title>
  <path id="svg_1" d="m477.122192,61.213463c-47.66449,2.705055 -142.401917,12.551079 -200.886597,48.351608c-4.035828,2.4702 -6.323364,6.862625 -6.323364,11.455116l0,316.49025c0,10.046082 10.985474,16.395538 20.248718,11.733459c60.172058,-30.286072 147.194458,-38.549072 190.222961,-40.810516c14.690735,-0.774139 26.111084,-12.551025 26.111084,-26.667755l0,-293.849617c0.008667,-15.403969 -13.351318,-27.607105 -29.372803,-26.702545zm-241.357834,48.351608c-58.475922,-35.800529 -153.213394,-45.637878 -200.877857,-48.351608c-16.021515,-0.90456 -29.381481,11.298576 -29.381481,26.702545l0,293.858345c0,14.125366 11.420336,25.902313 26.111076,26.667755c43.045876,2.261414 130.111794,10.533142 190.283821,40.836609c9.237152,4.653351 20.187805,-1.687439 20.187805,-11.707367l0,-316.707718c0,-4.601196 -2.278839,-8.819672 -6.323364,-11.298561z" fill="#1976d2"/>
 </g>
</svg>